<?xml version="1.0" encoding="UTF-8"?>
<svg xmlns="http://www.w3.org/2000/svg" xmlns:xlink="http://www.w3.org/1999/xlink" width="375pt" height="374.999991pt" viewBox="0 0 375 374.999991" version="1.2">
<defs>
<clipPath id="clip1">
  <path d="M 6.160156 6.160156 L 375 6.160156 L 375 375 L 6.160156 375 Z M 6.160156 6.160156 "/>
</clipPath>
</defs>
<g id="surface1">
<g clip-path="url(#clip1)" clip-rule="nonzero">
<path style=" stroke:none;fill-rule:nonzero;fill:rgb(100%,83.918762%,0%);fill-opacity:1;" d="M 6.160156 6.160156 L 375.324219 6.160156 L 375.324219 375.324219 L 6.160156 375.324219 Z M 6.160156 6.160156 "/>
</g>
<path style=" stroke:none;fill-rule:nonzero;fill:rgb(0%,0%,0.389099%);fill-opacity:1;" d="M 247.53125 282.492188 C 254.628906 294.015625 262.339844 305.0625 278.675781 305.0625 C 292.398438 305.0625 299.59375 298.242188 299.59375 288.808594 C 299.59375 277.515625 292.152344 273.507812 277.054688 266.933594 L 268.78125 263.40625 C 244.898438 253.277344 229.011719 240.582031 229.011719 213.765625 C 229.011719 189.050781 247.933594 170.246094 277.496094 170.246094 C 298.550781 170.246094 313.675781 177.535156 324.585938 196.628906 L 298.804688 213.109375 C 293.136719 202.976562 287.003906 198.988281 277.496094 198.988281 C 267.796875 198.988281 261.652344 205.109375 261.652344 213.109375 C 261.652344 222.992188 267.804688 226.992188 282.007812 233.113281 L 290.285156 236.644531 C 318.433594 248.628906 334.308594 260.875 334.308594 288.398438 C 334.308594 318.054688 310.886719 334.308594 279.445312 334.308594 C 248.691406 334.308594 231.226562 318.875 221.507812 299.769531 Z M 128.722656 283.332031 C 133.914062 292.621094 141.796875 299.769531 153.140625 299.769531 C 163.988281 299.769531 170.234375 295.484375 170.234375 278.820312 L 170.234375 170.234375 L 204.414062 170.234375 L 204.414062 284.070312 C 204.414062 318.597656 184.386719 334.308594 155.140625 334.308594 C 128.714844 334.308594 109.640625 316.402344 101.867188 299.769531 Z M 128.722656 283.332031 "/>
</g>
</svg>
