<?xml version="1.0" encoding="UTF-8"?>
<svg xmlns="http://www.w3.org/2000/svg" xmlns:xlink="http://www.w3.org/1999/xlink" width="375pt" height="374.999991pt" viewBox="0 0 375 374.999991" version="1.2">
<defs>
<clipPath id="clip1">
  <path d="M 97 229 L 154 229 L 154 312.234375 L 97 312.234375 Z M 97 229 "/>
</clipPath>
</defs>
<g id="surface1">
<g clip-path="url(#clip1)" clip-rule="nonzero">
<path style=" stroke:none;fill-rule:nonzero;fill:rgb(6.269836%,36.859131%,52.549744%);fill-opacity:1;" d="M 103.6875 303.871094 C 101.449219 303.871094 99.457031 303.734375 97.769531 303.472656 L 97.769531 310.902344 C 101.234375 312.28125 104.101562 312.96875 106.445312 312.96875 C 115.230469 312.96875 123.324219 307.609375 130.710938 296.839844 C 140.152344 282.902344 147.785156 260.527344 153.578125 229.769531 L 140.089844 229.769531 C 137.683594 248.65625 133.421875 266.148438 127.292969 282.136719 C 127.722656 278.9375 126.664062 273.316406 124.148438 265.257812 L 113.007812 229.769531 L 99.058594 229.769531 L 114.601562 277.238281 C 116.945312 284.359375 118.125 289.105469 118.125 291.433594 C 118.125 294.789062 116.625 297.820312 113.605469 300.53125 C 111.089844 302.738281 107.796875 303.871094 103.6875 303.871094 Z M 103.6875 303.871094 "/>
</g>
<path style=" stroke:none;fill-rule:nonzero;fill:rgb(87.059021%,54.119873%,1.179504%);fill-opacity:1;" d="M 302.183594 207.976562 L 302.183594 291.128906 L 342.496094 291.128906 L 342.496094 280.898438 L 315.746094 280.898438 L 315.746094 207.976562 Z M 302.183594 207.976562 "/>
<path style=" stroke:none;fill-rule:nonzero;fill:rgb(6.269836%,36.859131%,52.549744%);fill-opacity:1;" d="M 19.507812 224.808594 L 19.660156 224.808594 L 41.121094 291.128906 L 51.925781 291.128906 L 73.539062 224.808594 L 73.660156 224.808594 C 75.914062 245.5625 77.339844 267.632812 77.796875 291.128906 L 92.054688 291.128906 C 91.378906 266.007812 89.203125 238.273438 85.492188 207.976562 L 68.710938 207.976562 L 48.0625 269.089844 L 47.941406 269.089844 L 27.476562 207.976562 L 9.851562 207.976562 C 6.507812 233.828125 4.410156 261.566406 3.566406 291.128906 L 16.519531 291.128906 C 16.933594 266.804688 17.929688 244.703125 19.507812 224.808594 Z M 19.507812 224.808594 "/>
<path style=" stroke:none;fill-rule:nonzero;fill:rgb(87.059021%,54.119873%,1.179504%);fill-opacity:1;" d="M 289.875 247.996094 C 289.875 220.488281 278.871094 206.703125 256.84375 206.703125 C 246.050781 206.703125 237.621094 210.195312 231.550781 217.179688 C 224.960938 224.824219 221.652344 236.066406 221.652344 250.9375 C 221.652344 265.550781 224.5625 276.285156 230.449219 283.117188 C 235.8125 289.289062 243.890625 292.367188 254.710938 292.367188 C 258.757812 292.367188 262.46875 291.878906 265.824219 290.898438 L 286.132812 302.507812 L 291.652344 293.164062 L 291.605469 293.164062 L 276.035156 285.644531 C 277.414062 284.496094 278.746094 283.269531 279.941406 281.894531 C 286.578125 274.265625 289.875 262.960938 289.875 247.996094 Z M 256.105469 282.078125 C 249.285156 282.078125 244.304688 279.566406 241.117188 274.554688 L 241.148438 274.480469 C 237.699219 269.074219 235.980469 260.34375 235.980469 248.378906 C 235.980469 227.429688 242.480469 216.953125 255.449219 216.953125 C 262.238281 216.953125 267.25 219.464844 270.421875 224.472656 C 273.855469 229.910156 275.574219 238.546875 275.574219 250.386719 C 275.574219 271.492188 269.074219 282.078125 256.105469 282.078125 Z M 256.105469 282.078125 "/>
<path style=" stroke:none;fill-rule:nonzero;fill:rgb(87.059021%,54.119873%,1.179504%);fill-opacity:1;" d="M 205.894531 250.570312 C 205.894531 250.570312 193.722656 243.722656 187.699219 240.492188 C 181.078125 236.878906 177.492188 232.636719 177.492188 227.71875 C 177.492188 224.503906 178.945312 221.882812 181.292969 219.832031 C 183.621094 217.746094 186.980469 216.738281 191.316406 216.738281 C 196.667969 216.738281 202.105469 217.902344 207.625 220.199219 L 210.890625 213.046875 C 204.453125 208.925781 197.277344 206.886719 189.429688 206.886719 C 181.765625 206.886719 175.558594 208.941406 170.730469 213.121094 C 165.933594 217.257812 163.527344 222.664062 163.527344 229.433594 C 163.527344 237.566406 166.746094 242.515625 173.214844 247.140625 C 173.214844 247.140625 185.09375 253.816406 191.039062 257.019531 C 197.449219 260.558594 200.972656 264.769531 200.972656 269.730469 C 200.972656 273.652344 199.257812 276.761719 196.375 278.984375 C 193.460938 281.1875 189.460938 282.289062 184.375 282.289062 C 178.902344 282.289062 172.847656 280.667969 166.132812 277.359375 L 162.5 284.511719 C 170.300781 289.671875 178.289062 292.261719 186.609375 292.261719 C 195.515625 292.261719 202.550781 290.011719 207.824219 285.492188 C 213.097656 280.988281 215.734375 275.183594 215.734375 268.109375 L 215.824219 268.152344 C 215.824219 260.050781 212.53125 255.164062 205.894531 250.570312 Z M 205.894531 250.570312 "/>
<path style=" stroke:none;fill-rule:nonzero;fill:rgb(6.269836%,36.859131%,52.549744%);fill-opacity:1;" d="M 255.019531 92.71875 C 253.257812 92.71875 252.0625 92.933594 250.820312 93.210938 L 250.820312 93.410156 L 251.035156 93.410156 C 251.863281 94.972656 253.273438 96.121094 254.3125 97.515625 C 255.140625 99.121094 255.847656 100.730469 256.675781 102.324219 L 256.890625 102.09375 C 258.328125 101.097656 259.035156 99.503906 259.035156 97.085938 C 258.421875 96.382812 258.328125 95.675781 257.808594 94.988281 C 257.195312 93.976562 255.878906 93.488281 255.050781 92.691406 Z M 255.019531 92.71875 "/>
<path style=" stroke:none;fill-rule:nonzero;fill:rgb(6.269836%,36.859131%,52.549744%);fill-opacity:1;" d="M 366.757812 206.550781 C 363.785156 202.644531 360.089844 199.230469 356.105469 196.398438 C 352.824219 194.207031 345.652344 191.128906 344.304688 187.453125 L 344.105469 187.238281 C 346.34375 187.039062 349.007812 186.242188 351.15625 185.644531 C 354.632812 184.742188 357.824219 184.941406 361.425781 184.050781 C 363.050781 183.652344 364.691406 183.148438 366.328125 182.644531 L 366.328125 181.738281 C 364.492188 179.933594 363.109375 177.480469 361.210938 175.796875 C 356 171.355469 350.21875 167.050781 344.289062 163.421875 C 341.070312 161.398438 336.992188 160.113281 333.605469 158.398438 C 332.378906 157.800781 330.324219 157.492188 329.621094 156.484375 C 327.78125 154.292969 326.707031 151.367188 325.40625 148.746094 C 322.460938 143.21875 319.578125 137.09375 317.019531 131.257812 C 315.179688 127.320312 314.0625 123.398438 311.808594 119.785156 C 301.234375 102.691406 289.78125 92.324219 272.171875 82.199219 C 268.386719 80.101562 263.847656 79.195312 259.050781 78.078125 C 256.492188 77.957031 253.929688 77.773438 251.386719 77.664062 C 249.699219 76.960938 248.074219 75.046875 246.632812 74.125 C 240.808594 70.511719 225.726562 62.699219 221.4375 73.039062 C 218.675781 79.5625 225.527344 85.996094 227.902344 89.304688 C 229.667969 91.601562 231.890625 94.238281 233.117188 96.824219 C 233.835938 98.570312 234.035156 100.363281 234.753906 102.1875 C 236.378906 106.613281 237.929688 111.527344 240.074219 115.679688 C 241.191406 117.777344 242.417969 120 243.859375 121.882812 C 244.6875 122.984375 246.097656 123.492188 246.421875 125.296875 C 244.980469 127.351562 244.886719 130.324219 244.058594 132.820312 C 240.382812 144.199219 241.820312 158.273438 247.035156 166.652344 C 248.671875 169.148438 252.582031 174.679688 257.808594 172.566406 C 262.40625 170.757812 261.394531 165.042969 262.714844 160.003906 C 263.019531 158.796875 262.820312 158 263.449219 157.1875 L 263.449219 157.417969 C 264.890625 160.25 266.332031 162.929688 267.648438 165.765625 C 270.808594 170.695312 276.324219 175.8125 280.9375 179.226562 C 283.390625 181.035156 285.335938 184.160156 288.402344 185.277344 L 288.402344 184.972656 L 288.171875 184.972656 C 287.515625 184.097656 286.640625 183.683594 285.8125 182.964844 C 283.972656 181.15625 281.902344 178.953125 280.449219 176.945312 C 276.15625 171.277344 272.371094 165.058594 268.996094 158.625 C 267.3125 155.472656 265.902344 152.070312 264.554688 148.960938 C 263.941406 147.769531 263.941406 145.960938 262.914062 145.347656 C 261.378906 147.539062 259.125 149.453125 258.007812 152.164062 C 256.0625 156.496094 255.863281 161.8125 255.125 167.355469 C 254.710938 167.464844 254.910156 167.355469 254.710938 167.570312 C 251.433594 166.789062 250.3125 163.453125 249.085938 160.648438 C 246.023438 153.511719 245.515625 142.039062 248.167969 133.800781 C 248.886719 131.699219 251.953125 125.054688 250.726562 123.03125 C 250.082031 121.117188 248.058594 120.03125 246.941406 118.484375 C 245.609375 116.613281 244.183594 114.195312 243.261719 112.066406 C 240.808594 106.445312 239.582031 100.210938 236.917969 94.589844 C 235.691406 91.984375 233.542969 89.257812 231.796875 86.871094 C 229.851562 84.160156 227.703125 82.257812 226.15625 79.042969 C 225.652344 77.941406 224.929688 76.117188 225.742188 74.921875 C 225.957031 74.109375 226.386719 73.789062 227.183594 73.574219 C 228.53125 72.488281 232.320312 73.914062 233.652344 74.507812 C 237.4375 76.011719 240.625 77.417969 243.800781 79.535156 C 245.238281 80.527344 246.789062 82.429688 248.628906 82.933594 L 250.773438 82.933594 C 254.054688 83.636719 257.746094 83.148438 260.8125 84.035156 C 266.253906 85.75 271.160156 88.25 275.558594 90.960938 C 288.984375 99.320312 300.023438 111.175781 307.515625 125.328125 C 308.742188 127.640625 309.28125 129.769531 310.398438 132.175781 C 312.542969 137.136719 315.195312 142.144531 317.371094 146.941406 C 319.519531 151.671875 321.585938 156.511719 324.667969 160.433594 C 326.203125 162.53125 332.363281 163.636719 335.121094 164.738281 C 337.160156 165.640625 340.332031 166.46875 342.171875 167.570312 C 345.699219 169.671875 349.132812 172.089844 352.441406 174.402344 C 354.128906 175.550781 359.234375 178.0625 359.539062 180.085938 C 351.339844 179.871094 344.976562 180.683594 339.660156 182.917969 C 338.125 183.515625 335.675781 183.515625 335.460938 185.429688 C 336.300781 186.226562 336.425781 187.527344 337.144531 188.648438 C 338.371094 190.652344 340.488281 193.347656 342.449219 194.773438 C 344.59375 196.425781 346.742188 198.019531 348.992188 199.429688 C 352.980469 201.835938 357.5 203.257812 361.410156 205.679688 C 363.632812 207.085938 365.902344 208.878906 368.152344 210.378906 C 369.273438 211.132812 369.992188 212.496094 371.433594 212.96875 L 371.433594 212.679688 C 370.730469 211.773438 370.515625 210.472656 369.824219 209.460938 C 368.796875 208.449219 367.769531 207.546875 366.757812 206.550781 Z M 366.757812 206.550781 "/>
</g>
</svg>
